Normalized EMG Linear Envelopes
nRows=172
nColumns=4

endheader
time	 med_gas_r	  soleus_r	 tib_ant_r	
1.74989	  0.143761	  0.122594	  0.041234	
1.81238	  0.142459	  0.117536	  0.041541	
1.87488	  0.140412	  0.114340	  0.041461	
1.93738	  0.138668	  0.115408	  0.041443	
1.99987	  0.139820	  0.122455	  0.041380	
2.06237	  0.142211	  0.130329	  0.041103	
2.12486	  0.144982	  0.132846	  0.040896	
2.18736	  0.149402	  0.130904	  0.041064	
2.24986	  0.153891	  0.130429	  0.042020	
2.31235	  0.153286	  0.132236	  0.043713	
2.37485	  0.145665	  0.134152	  0.045300	
2.43734	  0.135404	  0.132497	  0.045532	
2.49984	  0.128748	  0.128580	  0.044770	
2.56234	  0.128550	  0.126135	  0.044100	
2.62483	  0.132107	  0.125262	  0.043788	
2.68733	  0.135738	  0.125648	  0.043338	
2.74982	  0.140452	  0.126499	  0.042708	
2.81232	  0.146477	  0.129304	  0.042755	
2.87482	  0.149804	  0.132054	  0.043768	
2.93731	  0.150377	  0.133366	  0.044593	
2.99981	  0.150412	  0.138147	  0.044228	
3.0623	  0.151246	  0.146199	  0.043013	
3.1248	  0.151439	  0.152143	  0.042079	
3.1873	  0.151818	  0.152289	  0.042094	
3.24979	  0.151169	  0.146888	  0.042904	
3.31229	  0.147225	  0.135652	  0.043459	
3.37478	  0.141525	  0.125031	  0.043742	
3.43728	  0.136158	  0.119261	  0.043998	
3.49978	  0.133232	  0.118934	  0.043700	
3.56227	  0.133031	  0.122925	  0.042655	
3.62477	  0.133856	  0.127706	  0.041406	
3.68726	  0.134274	  0.130909	  0.040204	
3.74976	  0.134399	  0.131635	  0.039910	
3.81226	  0.136315	  0.131225	  0.040826	
3.87475	  0.139708	  0.130896	  0.042362	
3.93725	  0.143705	  0.128894	  0.044127	
3.99974	  0.147812	  0.128430	  0.045651	
4.06224	  0.148350	  0.130883	  0.046326	
4.12474	  0.143950	  0.133478	  0.045596	
4.18723	  0.137501	  0.133338	  0.044316	
4.24973	  0.133200	  0.129488	  0.043541	
4.31222	  0.131566	  0.125338	  0.043442	
4.37472	  0.130562	  0.124023	  0.043214	
4.43722	  0.131283	  0.124446	  0.042507	
4.49971	  0.133531	  0.125331	  0.041982	
4.56221	  0.135775	  0.125702	  0.041748	
4.6247	  0.136953	  0.125209	  0.042065	
4.6872	  0.135580	  0.122499	  0.042281	
4.7497	  0.133452	  0.120612	  0.042084	
4.81219	  0.133250	  0.120481	  0.042135	
4.87469	  0.135030	  0.122803	  0.042041	
4.93718	  0.136943	  0.126413	  0.041804	
4.99968	  0.139386	  0.127790	  0.042631	
5.06218	  0.145294	  0.124478	  0.046315	
5.12467	  0.155312	  0.119900	  0.054974	
5.18717	  0.165357	  0.119074	  0.069797	
5.24966	  0.174563	  0.125218	  0.086132	
5.31216	  0.183783	  0.141692	  0.097688	
5.37466	  0.194732	  0.174360	  0.104370	
5.43715	  0.205046	  0.217356	  0.112817	
5.49965	  0.207225	  0.247192	  0.126325	
5.56214	  0.207955	  0.245354	  0.144468	
5.62464	  0.213051	  0.237417	  0.162408	
5.68714	  0.222848	  0.245180	  0.178614	
5.74963	  0.241372	  0.265403	  0.189188	
5.81213	  0.268515	  0.264983	  0.191916	
5.87462	  0.300282	  0.230854	  0.190660	
5.93712	  0.317937	  0.195043	  0.191040	
5.99962	  0.310832	  0.172308	  0.200299	
6.06211	  0.307759	  0.160643	  0.222109	
6.12461	  0.315316	  0.153636	  0.251444	
6.1871	  0.316827	  0.148960	  0.281292	
6.2496	  0.333470	  0.146756	  0.312683	
6.3121	  0.354418	  0.147440	  0.341189	
6.37459	  0.355921	  0.149735	  0.366132	
6.43709	  0.363704	  0.153865	  0.394792	
6.49958	  0.378085	  0.155338	  0.435649	
6.56208	  0.365766	  0.155005	  0.473675	
6.62458	  0.360015	  0.155734	  0.503509	
6.68707	  0.382045	  0.157093	  0.521555	
6.74957	  0.396259	  0.158948	  0.530694	
6.81206	  0.390522	  0.161094	  0.539485	
6.87456	  0.375399	  0.161199	  0.542666	
6.93706	  0.348675	  0.156337	  0.537432	
6.99955	  0.327980	  0.149088	  0.535419	
7.06205	  0.327556	  0.139891	  0.524258	
7.12454	  0.335731	  0.132692	  0.502204	
7.18704	  0.356035	  0.132100	  0.492210	
7.24954	  0.376538	  0.138314	  0.497179	
7.31203	  0.386591	  0.146144	  0.511143	
7.37453	  0.413342	  0.153743	  0.528275	
7.43702	  0.452769	  0.158726	  0.523273	
7.49952	  0.481927	  0.156669	  0.525963	
7.56202	  0.509592	  0.153497	  0.539922	
7.62451	  0.505195	  0.156793	  0.543239	
7.68701	  0.484404	  0.168790	  0.533839	
7.7495	  0.486682	  0.190721	  0.524351	
7.812	  0.495394	  0.215144	  0.531676	
7.8745	  0.490684	  0.227568	  0.549260	
7.93699	  0.472178	  0.215489	  0.569596	
7.99949	  0.450201	  0.197754	  0.583064	
8.06198	  0.456106	  0.187995	  0.583798	
8.12448	  0.471565	  0.188918	  0.562983	
8.18698	  0.479315	  0.192393	  0.531438	
8.24947	  0.488112	  0.184146	  0.510651	
8.31197	  0.496038	  0.169088	  0.503043	
8.37446	  0.508033	  0.157576	  0.513092	
8.43696	  0.506774	  0.153300	  0.532399	
8.49946	  0.490910	  0.156988	  0.553515	
8.56195	  0.490349	  0.169008	  0.577284	
8.62445	  0.478073	  0.181081	  0.592085	
8.68694	  0.466616	  0.183378	  0.590884	
8.74944	  0.470323	  0.181576	  0.562990	
8.81194	  0.466536	  0.179036	  0.534378	
8.87443	  0.465771	  0.171877	  0.525616	
8.93693	  0.470999	  0.167089	  0.520433	
8.99942	  0.488550	  0.168300	  0.492651	
9.06192	  0.523205	  0.170670	  0.451592	
9.12442	  0.552954	  0.169843	  0.414763	
9.18691	  0.582183	  0.168132	  0.400967	
9.24941	  0.592727	  0.165433	  0.416202	
9.3119	  0.594103	  0.156861	  0.457282	
9.3744	  0.587570	  0.144617	  0.499887	
9.4369	  0.580016	  0.138416	  0.517927	
9.49939	  0.576152	  0.141273	  0.511572	
9.56189	  0.552307	  0.149911	  0.494546	
9.62438	  0.527590	  0.164375	  0.484635	
9.68688	  0.508531	  0.182590	  0.490640	
9.74938	  0.488600	  0.195644	  0.510054	
9.81187	  0.479723	  0.195149	  0.521359	
9.87437	  0.470567	  0.180935	  0.524179	
9.93686	  0.472675	  0.161067	  0.535090	
9.99936	  0.488856	  0.145357	  0.546355	
10.0619	  0.492210	  0.138262	  0.559271	
10.1244	  0.487310	  0.139319	  0.564423	
10.1868	  0.482457	  0.144931	  0.566864	
10.2493	  0.476065	  0.146425	  0.571448	
10.3118	  0.460616	  0.142124	  0.566975	
10.3743	  0.433211	  0.134303	  0.534874	
10.4368	  0.414154	  0.126913	  0.496606	
10.4993	  0.400231	  0.123262	  0.467827	
10.5618	  0.389963	  0.127917	  0.449380	
10.6243	  0.409085	  0.141464	  0.447625	
10.6868	  0.426516	  0.155271	  0.455683	
10.7493	  0.418565	  0.163740	  0.464244	
10.8118	  0.417085	  0.168073	  0.489710	
10.8743	  0.406307	  0.168789	  0.524449	
10.9368	  0.394613	  0.164576	  0.539390	
10.9993	  0.394477	  0.152847	  0.520428	
11.0618	  0.394454	  0.140302	  0.471719	
11.1243	  0.403592	  0.130393	  0.396476	
11.1868	  0.393758	  0.127448	  0.327418	
11.2493	  0.366606	  0.131904	  0.279257	
11.3118	  0.349436	  0.138464	  0.248523	
11.3743	  0.343202	  0.143468	  0.231719	
11.4368	  0.347515	  0.148698	  0.213222	
11.4993	  0.360027	  0.155465	  0.198463	
11.5618	  0.341656	  0.160614	  0.185963	
11.6243	  0.317888	  0.161905	  0.181730	
11.6868	  0.307772	  0.159996	  0.181221	
11.7492	  0.300597	  0.156296	  0.175071	
11.8117	  0.310768	  0.154409	  0.161558	
11.8742	  0.332305	  0.153579	  0.150635	
11.9367	  0.336292	  0.150643	  0.146831	
11.9992	  0.335016	  0.145044	  0.147102	
12.0617	  0.324224	  0.140664	  0.146755	
12.1242	  0.303258	  0.137009	  0.142476	
12.1867	  0.303006	  0.132650	  0.142012	
12.2492	  0.307915	  0.127163	  0.141938	
12.3117	  0.309585	  0.122844	  0.141425	
12.3742	  0.321022	  0.122862	  0.135885	
12.4367	  0.323093	  0.124622	  0.126891	
